<?xml version="1.0" encoding="UTF-8"?>
<svg width="19px" height="25px" viewBox="0 0 19 25" version="1.1" xmlns="http://www.w3.org/2000/svg" xmlns:xlink="http://www.w3.org/1999/xlink">
    <!-- Generator: Sketch 42 (36781) - http://www.bohemiancoding.com/sketch -->
    <title>clipboard</title>
    <desc>Created with Sketch.</desc>
    <defs></defs>
    <g id="Page-1" stroke="none" stroke-width="1" fill="none" fill-rule="evenodd">
        <g id="Full-Color" transform="translate(-353.000000, -300.000000)">
            <g id="clipboard" transform="translate(353.000000, 300.000000)">
                <path d="M17.5,3.5031 L14.5,3.5031 L14.5,5.5031 C14.5,6.0561 14.052,6.5031 13.5,6.5031 L5.5,6.5031 C4.948,6.5031 4.5,6.0561 4.5,5.5031 L4.5,3.5031 L1.5,3.5031 C0.948,3.5031 0.5,3.9501 0.5,4.5031 L0.5,23.5031 C0.5,24.0561 0.948,24.5031 1.5,24.5031 L17.5,24.5031 C18.052,24.5031 18.5,24.0561 18.5,23.5031 L18.5,4.5031 C18.5,3.9501 18.052,3.5031 17.5,3.5031" id="Fill-69" fill="#FFCC00"></path>
                <path d="M14.5,5.5031 C14.5,6.0561 14.052,6.5031 13.5,6.5031 L5.5,6.5031 C4.948,6.5031 4.5,6.0561 4.5,5.5031 L2.5,5.5031 L2.5,22.5031 L12.5,22.5031 L16.5,18.5031 L16.5,5.5031 L14.5,5.5031 Z" id="Fill-70" fill="#FFFFFF"></path>
                <path d="M13.5,2.5031 L11.5,2.5031 C11.5,1.3991 10.604,0.5031 9.5,0.5031 C8.396,0.5031 7.5,1.3991 7.5,2.5031 L5.5,2.5031 C4.948,2.5031 4.5,2.9501 4.5,3.5031 L4.5,5.5031 C4.5,6.0561 4.948,6.5031 5.5,6.5031 L13.5,6.5031 C14.052,6.5031 14.5,6.0561 14.5,5.5031 L14.5,3.5031 C14.5,2.9501 14.052,2.5031 13.5,2.5031" id="Fill-71" fill="#339EFF"></path>
                <path d="M9.5,14.0031 L5.5,14.0031 C5.224,14.0031 5,14.2271 5,14.5031 C5,14.7791 5.224,15.0031 5.5,15.0031 L9.5,15.0031 C9.776,15.0031 10,14.7791 10,14.5031 C10,14.2271 9.776,14.0031 9.5,14.0031 L9.5,14.0031 Z M5.5,13.0031 L13.5,13.0031 C13.776,13.0031 14,12.7791 14,12.5031 C14,12.2271 13.776,12.0031 13.5,12.0031 L5.5,12.0031 C5.224,12.0031 5,12.2271 5,12.5031 C5,12.7791 5.224,13.0031 5.5,13.0031 L5.5,13.0031 Z M5.5,11.0031 L13.5,11.0031 C13.776,11.0031 14,10.7791 14,10.5031 C14,10.2271 13.776,10.0031 13.5,10.0031 L5.5,10.0031 C5.224,10.0031 5,10.2271 5,10.5031 C5,10.7791 5.224,11.0031 5.5,11.0031 L5.5,11.0031 Z M9.5,1.0031 C8.673,1.0031 8,1.6761 8,2.5031 C8,2.7791 7.776,3.0031 7.5,3.0031 L5.5,3.0031 C5.224,3.0031 5,3.2281 5,3.5031 L5,5.5031 C5,5.7781 5.224,6.0031 5.5,6.0031 L13.5,6.0031 C13.776,6.0031 14,5.7781 14,5.5031 L14,3.5031 C14,3.2281 13.776,3.0031 13.5,3.0031 L11.5,3.0031 C11.224,3.0031 11,2.7791 11,2.5031 C11,1.6761 10.327,1.0031 9.5,1.0031 L9.5,1.0031 Z M17.5,4.0031 L15,4.0031 L15,5.0031 L16.5,5.0031 C16.776,5.0031 17,5.2271 17,5.5031 L17,18.5031 C17,18.5691 16.986,18.6351 16.961,18.6951 C16.936,18.7571 16.899,18.8121 16.853,18.8571 L12.854,22.8571 C12.808,22.9011 12.753,22.9391 12.692,22.9641 C12.632,22.9891 12.567,23.0031 12.5,23.0031 L2.5,23.0031 C2.224,23.0031 2,22.7791 2,22.5031 L2,5.5031 C2,5.2271 2.224,5.0031 2.5,5.0031 L4,5.0031 L4,4.0031 L1.5,4.0031 C1.224,4.0031 1,4.2281 1,4.5031 L1,23.5031 C1,23.7781 1.224,24.0031 1.5,24.0031 L17.5,24.0031 C17.776,24.0031 18,23.7781 18,23.5031 L18,4.5031 C18,4.2281 17.776,4.0031 17.5,4.0031 L17.5,4.0031 Z M13,19.0031 L13,21.2961 L15.293,19.0031 L13,19.0031 Z M4.641,6.7291 C4.624,6.7181 4.611,6.7031 4.595,6.6911 C4.5,6.6181 4.415,6.5341 4.339,6.4411 C4.322,6.4201 4.304,6.4011 4.289,6.3801 C4.211,6.2741 4.148,6.1571 4.101,6.0321 C4.097,6.0221 4.089,6.0141 4.085,6.0031 L3,6.0031 L3,22.0031 L12,22.0031 L12,18.5031 C12,18.2271 12.224,18.0031 12.5,18.0031 L16,18.0031 L16,6.0031 L14.915,6.0031 C14.911,6.0141 14.903,6.0221 14.899,6.0321 C14.852,6.1571 14.789,6.2741 14.711,6.3801 C14.696,6.4011 14.678,6.4201 14.661,6.4411 C14.585,6.5341 14.5,6.6181 14.405,6.6911 C14.389,6.7031 14.376,6.7181 14.359,6.7291 C14.251,6.8051 14.131,6.8641 14.005,6.9091 C13.976,6.9201 13.947,6.9281 13.918,6.9371 C13.784,6.9761 13.646,7.0031 13.5,7.0031 L5.5,7.0031 C5.354,7.0031 5.216,6.9761 5.082,6.9371 C5.053,6.9281 5.024,6.9201 4.995,6.9091 C4.869,6.8641 4.749,6.8051 4.641,6.7291 L4.641,6.7291 Z M9.5,0.0031 C10.708,0.0031 11.717,0.8631 11.95,2.0031 L13.5,2.0031 C14.151,2.0031 14.701,2.4221 14.908,3.0031 L17.5,3.0031 C18.327,3.0031 19,3.6761 19,4.5031 L19,23.5031 C19,24.3301 18.327,25.0031 17.5,25.0031 L1.5,25.0031 C0.673,25.0031 0,24.3301 0,23.5031 L0,4.5031 C0,3.6761 0.673,3.0031 1.5,3.0031 L4.092,3.0031 C4.299,2.4221 4.849,2.0031 5.5,2.0031 L7.05,2.0031 C7.283,0.8631 8.292,0.0031 9.5,0.0031 L9.5,0.0031 Z M9.5,2.0031 C9.776,2.0031 10,2.2271 10,2.5031 C10,2.7791 9.776,3.0031 9.5,3.0031 C9.224,3.0031 9,2.7791 9,2.5031 C9,2.2271 9.224,2.0031 9.5,2.0031 L9.5,2.0031 Z" id="Fill-229" fill="#000000"></path>
                <path d="M18.5,21.0031 C18.224,21.0031 18,21.2271 18,21.5031 C18,21.7781 17.775,22.0031 17.5,22.0031 L1.5,22.0031 C1.225,22.0031 1,21.7781 1,21.5031 C1,21.2271 0.776,21.0031 0.5,21.0031 C0.224,21.0031 0,21.2271 0,21.5031 L0,23.5031 C0,24.3301 0.673,25.0031 1.5,25.0031 L17.5,25.0031 C18.327,25.0031 19,24.3301 19,23.5031 L19,21.5031 C19,21.2271 18.776,21.0031 18.5,21.0031" id="Fill-363" fill="#000000" opacity="0.119999997"></path>
            </g>
        </g>
    </g>
</svg>